#!OML:ASF F:\VICON\USERDATA\INSTALL\rory3\rory3.ASF
:FULLY-SPECIFIED
:DEGREES
88
root 0.13524908942265335 17.838232191688967 39.66224254889932 -3.000418852494076 -2.2972230400051186 -7.484688428035104
lfemur -24.048107901127985 2.157141019696607 -11.107375916350557
ltibia 62.600177454620685
lfoot -6.551639350554311 -2.955198566548757
ltoes -9.004231265277244
rfemur -5.150859455510442 3.4757318250798765 35.28754021842843
rtibia 30.312728091474558
rfoot -15.118911961078332 -6.793965085887295
rtoes 6.494518494968652
lowerback 10.586507460931864 1.3224026373488373 4.862694551161036
upperback 0.21504946576811257 2.485730266799403 2.302589583004815
thorax -5.748467296947112 1.1232896334523628 -0.7716869805732676
lowerneck -16.432020658614913 -3.0751747007347294 -1.9788347033083058
upperneck 19.830734135881322 -4.306072540870835 2.571748159712431
head 9.012188950389612 -1.8762985259477036 0.5953826245775198
lclavicle 2.9911140334788075e-16 5.531456153609874e-17
lhumerus -33.86074848654966 3.127450197253698 83.30626205737792
lradius 26.25300527151649
lwrist 8.203481395090975
lhand -28.787706865679308 19.737295936065
lfingers 7.125020000000001
lthumb -2.1076130580255477 49.79615615199743
rclavicle 2.991114032012492e-16 5.531456143129609e-17
rhumerus -30.707445201792808 -18.63250210482234 -78.14195455707251
rradius 28.7624237238547
rwrist -0.08804667870298166
rhand -18.547136847833528 21.752266271741618
rfingers 7.125020000000001
rthumb 7.550115000838824 -8.125972857069627
89
root 0.15844911609961132 17.791088889807746 40.78577843392317 -2.4869721508750846 -3.218194240391 -7.713687165284651
lfemur -26.541352377146428 1.8257192777985596 -10.91558401934948
ltibia 56.10055864923479
lfoot -7.859794095903719 0.2778826044061997
ltoes -6.792989064405565
rfemur -3.5023338044399814 3.5217604571940697 35.601950295706004
rtibia 30.9446473739331
rfoot -14.74822914582684 -6.584799778992237
rtoes 6.33830119207301
lowerback 10.761051341183888 1.5603350173151027 5.146778910604939
upperback 0.13133444864319238 2.862146927899543 2.25758971533143
thorax -5.855886013576369 1.2902978165340822 -1.1600945239145373
lowerneck -16.492962709134044 -3.1135613446207846 -1.9156403432018039
upperneck 19.62544498846518 -4.385424746913262 2.5775635439521674
head 8.938097167021398 -1.9015331673773415 0.5698739674914997
lclavicle 2.991114033434712e-16 5.531456153274429e-17
lhumerus -34.54683643113917 4.443186204463322 82.88039752700357
lradius 25.527597800010174
lwrist 8.027811249784586
lhand -29.87803616770996 17.45916236453635
lfingers 7.125020000000001
lthumb -3.0035348475137837 47.82018499591854
rclavicle 2.9911140319573004e-16 5.531456142708068e-17
rhumerus -30.128701908202235 -18.406931009431606 -78.30585507283836
rradius 28.968976157314053
rwrist -0.696587423700922
rhand -18.63706517490515 21.98541403517103
rfingers 7.125020000000001
rthumb 7.491619823924346 -7.845104728272982
90
root 0.1853288654584232 17.767115308294606 41.246978848418934 -1.9204352359006573 -3.8534694359058563 -7.921592847574248
lfemur -27.639153486552164 0.5775319434391806 -10.364298384042975
ltibia 47.01523107998274
lfoot -6.826188541123315 2.9880332181630553
ltoes -6.116670850077065
rfemur -1.8615677545239127 3.563327791560563 35.859732490056885
rtibia 30.955794688848957
rfoot -13.610651918506903 -6.565439293062713
rtoes 6.056384936427357
lowerback 10.652197511105602 1.7984853686647817 5.575162466315309
upperback 0.07441501974549056 3.2302444636874412 2.245345020723251
thorax -5.81288370479788 1.4636175296118663 -1.5407732124813054
lowerneck -16.55702887751794 -3.156522839912432 -1.8646519315675878
upperneck 19.42821073831359 -4.4886407994271655 2.5854235623394137
head 8.865363830042718 -1.937207661185135 0.5466853932995973
lclavicle 2.991114033334792e-16 5.531456152558195e-17
lhumerus -34.991166225071474 5.886337622183518 82.24045443594397
lradius 24.364758847692197
lwrist 7.38437180242562
lhand -30.558254380895903 15.735160811026605
lfingers 7.125020000000001
lthumb -3.4856992008383645 46.62439144070048
rclavicle 2.9911140319626095e-16 5.531456142752384e-17
rhumerus -29.515346630822343 -18.29205403104294 -78.44650460559559
rradius 28.996741943615433
rwrist -1.0178629886992918
rhand -18.626535970598614 22.417485844359415
rfingers 7.125020000000001
rthumb 7.589917328671264 -7.367173519612073
91
root 0.22152143770141264 17.755115113019833 42.07090396784706 -1.3478617272772329 -4.381609371731715 -7.9732685616755825
lfemur -27.311816643044413 -1.5707999137518334 -9.362227449531392
ltibia 35.65319505177183
lfoot -4.521300448150869 3.9491316673617654
ltoes -5.7635442485669035
rfemur 0.021690058552566782 3.605299954792662 35.88808034512112
rtibia 30.33717917646054
rfoot -12.53625042239925 -6.578574053932799
rtoes 5.457022969242285
lowerback 10.462313068835234 1.997218516430279 5.9188976734958345
upperback -0.04589531289947156 3.5414732761650383 2.2297386356841433
thorax -5.761370636364816 1.61759014145314 -1.885550547469075
lowerneck -16.648131554220246 -3.2192219895168805 -1.823508295287851
upperneck 19.326705552056808 -4.638787369101384 2.6884557858397216
head 8.82266801934016 -1.9831962910178298 0.5552954906257117
lclavicle 2.9911140332388814e-16 5.53145615189835e-17
lhumerus -35.47904064623859 7.412035893094737 81.52085348221165
lradius 22.944149071245867
lwrist 6.545141294716739
lhand -30.50617735364373 15.112306251661915
lfingers 7.125020000000001
lthumb -3.3555943177387073 46.270441181828325
rclavicle 2.991114032085711e-16 5.531456143659289e-17
rhumerus -29.240104383496462 -18.323613635992828 -78.38739593382235
rradius 28.86750523162297
rwrist -0.9328294265526949
rhand -18.63981082212861 22.797059554729326
rfingers 7.125020000000001
rthumb 7.649058814265648 -6.936640634686661
